<svg id="visual" viewBox="0 0 1920 1080" width="1920" height="1080" xmlns="http://www.w3.org/2000/svg" xmlns:xlink="http://www.w3.org/1999/xlink" version="1.1"><rect x="0" y="0" width="1920" height="1080" fill="#010613"></rect><path d="M0 839L40 831.5C80 824 160 809 240 807.8C320 806.7 400 819.3 480 819C560 818.7 640 805.3 720 805.2C800 805 880 818 960 809.8C1040 801.7 1120 772.3 1200 759.7C1280 747 1360 751 1440 759.5C1520 768 1600 781 1680 787.8C1760 794.7 1840 795.3 1880 795.7L1920 796L1920 1081L1880 1081C1840 1081 1760 1081 1680 1081C1600 1081 1520 1081 1440 1081C1360 1081 1280 1081 1200 1081C1120 1081 1040 1081 960 1081C880 1081 800 1081 720 1081C640 1081 560 1081 480 1081C400 1081 320 1081 240 1081C160 1081 80 1081 40 1081L0 1081Z" fill="#09024e"></path><path d="M0 814L40 820.3C80 826.7 160 839.3 240 848.8C320 858.3 400 864.7 480 858.2C560 851.7 640 832.3 720 838.8C800 845.3 880 877.7 960 881.5C1040 885.3 1120 860.7 1200 845.7C1280 830.7 1360 825.3 1440 824.3C1520 823.3 1600 826.7 1680 832.7C1760 838.7 1840 847.3 1880 851.7L1920 856L1920 1081L1880 1081C1840 1081 1760 1081 1680 1081C1600 1081 1520 1081 1440 1081C1360 1081 1280 1081 1200 1081C1120 1081 1040 1081 960 1081C880 1081 800 1081 720 1081C640 1081 560 1081 480 1081C400 1081 320 1081 240 1081C160 1081 80 1081 40 1081L0 1081Z" fill="#09045b"></path><path d="M0 910L40 918C80 926 160 942 240 946.8C320 951.7 400 945.3 480 943.3C560 941.3 640 943.7 720 944.3C800 945 880 944 960 947.5C1040 951 1120 959 1200 950.3C1280 941.7 1360 916.3 1440 905.2C1520 894 1600 897 1680 901.3C1760 905.7 1840 911.3 1880 914.2L1920 917L1920 1081L1880 1081C1840 1081 1760 1081 1680 1081C1600 1081 1520 1081 1440 1081C1360 1081 1280 1081 1200 1081C1120 1081 1040 1081 960 1081C880 1081 800 1081 720 1081C640 1081 560 1081 480 1081C400 1081 320 1081 240 1081C160 1081 80 1081 40 1081L0 1081Z" fill="#0a0469"></path><path d="M0 1019L40 1012.2C80 1005.3 160 991.7 240 981.7C320 971.7 400 965.3 480 963.7C560 962 640 965 720 975.3C800 985.7 880 1003.3 960 1002C1040 1000.7 1120 980.3 1200 974.8C1280 969.3 1360 978.7 1440 981.8C1520 985 1600 982 1680 985.5C1760 989 1840 999 1880 1004L1920 1009L1920 1081L1880 1081C1840 1081 1760 1081 1680 1081C1600 1081 1520 1081 1440 1081C1360 1081 1280 1081 1200 1081C1120 1081 1040 1081 960 1081C880 1081 800 1081 720 1081C640 1081 560 1081 480 1081C400 1081 320 1081 240 1081C160 1081 80 1081 40 1081L0 1081Z" fill="#0b0476"></path></svg>