<?xml version="1.0" ?><svg enable-background="new 0 0 512 512" id="Layer_1" version="1.1" viewBox="0 0 512 512" xml:space="preserve" xmlns="http://www.w3.org/2000/svg" xmlns:xlink="http://www.w3.org/1999/xlink"><g><g><linearGradient gradientUnits="userSpaceOnUse" id="SVGID_1_" x1="0.0000038" x2="512" y1="256" y2="256"><stop offset="0" style="stop-color:#8DC63F"/><stop offset="1" style="stop-color:#76B83F"/></linearGradient><circle cx="256" cy="256" fill="url(#SVGID_1_)" r="256"/><linearGradient gradientUnits="userSpaceOnUse" id="SVGID_2_" x1="42.6666679" x2="469.3333435" y1="256.0005188" y2="256.0005188"><stop offset="0" style="stop-color:#76B83F"/><stop offset="1" style="stop-color:#8DC63F"/></linearGradient><path d="M256,469.3338623c-117.6314697,0-213.3333282-95.7018738-213.3333282-213.3333435    c0-117.6309204,95.7018585-213.333313,213.3333282-213.333313c117.6357422,0,213.3333435,95.7024002,213.3333435,213.333313    C469.3333435,373.6319885,373.6357422,469.3338623,256,469.3338623z" fill="url(#SVGID_2_)"/></g><g><path d="M144,383.9728088h184.6650696V199.3616028H144V383.9728088z M180.9809113,286.6757202h50.3519897    v-50.3493195h10v50.3493195h50.3513641v10H241.332901v50.3514709h-10v-50.3514709h-50.3519897V286.6757202z" opacity="0.3"/><polygon opacity="0.3" points="199.3882599,144.0272064 199.3882599,189.3616028 338.6672058,189.3616028     338.6672058,328.6389465 384,328.6389465 384,144.0272064   "/></g><g><path d="M136,375.9728088h184.6650696V191.3616028H136V375.9728088z M172.9809113,278.6757202h50.3519897    v-50.3493195h10v50.3493195h50.3513641v10H233.332901v50.3514709h-10v-50.3514709h-50.3519897V278.6757202z" fill="#FFFFFF"/><polygon fill="#FFFFFF" points="191.3882751,136.0271912 191.3882751,181.3616028 330.6672058,181.3616028     330.6672058,320.6389465 376,320.6389465 376,136.0271912   "/></g></g></svg>