<svg id="visual" viewBox="0 0 1920 1080" width="1920" height="1080" xmlns="http://www.w3.org/2000/svg" xmlns:xlink="http://www.w3.org/1999/xlink" version="1.1"><rect x="0" y="0" width="1920" height="1080" fill="#e8e8e8"></rect><path d="M0 771L45.7 760.2C91.3 749.3 182.7 727.7 274.2 721.2C365.7 714.7 457.3 723.3 548.8 734.3C640.3 745.3 731.7 758.7 823 768C914.3 777.3 1005.7 782.7 1097 773.3C1188.3 764 1279.7 740 1371.2 728.3C1462.7 716.7 1554.3 717.3 1645.8 713C1737.3 708.7 1828.7 699.3 1874.3 694.7L1920 690L1920 1081L1874.3 1081C1828.7 1081 1737.3 1081 1645.8 1081C1554.3 1081 1462.7 1081 1371.2 1081C1279.7 1081 1188.3 1081 1097 1081C1005.7 1081 914.3 1081 823 1081C731.7 1081 640.3 1081 548.8 1081C457.3 1081 365.7 1081 274.2 1081C182.7 1081 91.3 1081 45.7 1081L0 1081Z" fill="#6eec52"></path><path d="M0 785L45.7 783.7C91.3 782.3 182.7 779.7 274.2 798.8C365.7 818 457.3 859 548.8 860.3C640.3 861.7 731.7 823.3 823 821.7C914.3 820 1005.7 855 1097 862.8C1188.3 870.7 1279.7 851.3 1371.2 852.8C1462.7 854.3 1554.3 876.7 1645.8 881.3C1737.3 886 1828.7 873 1874.3 866.5L1920 860L1920 1081L1874.3 1081C1828.7 1081 1737.3 1081 1645.8 1081C1554.3 1081 1462.7 1081 1371.2 1081C1279.7 1081 1188.3 1081 1097 1081C1005.7 1081 914.3 1081 823 1081C731.7 1081 640.3 1081 548.8 1081C457.3 1081 365.7 1081 274.2 1081C182.7 1081 91.3 1081 45.7 1081L0 1081Z" fill="#92e773"></path><path d="M0 923L45.7 929.8C91.3 936.7 182.7 950.3 274.2 953.7C365.7 957 457.3 950 548.8 944C640.3 938 731.7 933 823 931.8C914.3 930.7 1005.7 933.3 1097 927.7C1188.3 922 1279.7 908 1371.2 915.3C1462.7 922.7 1554.3 951.3 1645.8 954.8C1737.3 958.3 1828.7 936.7 1874.3 925.8L1920 915L1920 1081L1874.3 1081C1828.7 1081 1737.3 1081 1645.8 1081C1554.3 1081 1462.7 1081 1371.2 1081C1279.7 1081 1188.3 1081 1097 1081C1005.7 1081 914.3 1081 823 1081C731.7 1081 640.3 1081 548.8 1081C457.3 1081 365.7 1081 274.2 1081C182.7 1081 91.3 1081 45.7 1081L0 1081Z" fill="#ace191"></path></svg>